<?xml version="1.0" encoding="utf-8"?>
<!-- Generator: Adobe Illustrator 24.0.2, SVG Export Plug-In . SVG Version: 6.00 Build 0)  -->
<svg version="1.1" id="Calque_1" xmlns="http://www.w3.org/2000/svg" xmlns:xlink="http://www.w3.org/1999/xlink" x="0px" y="0px"
	 viewBox="0 0 396.6 380.6" style="enable-background:new 0 0 396.6 380.6;" xml:space="preserve">
<style type="text/css">
	.st0{fill:#FFFFFF;}
</style>
<path class="st0" d="M198.3,19.9c-94.1,0-170.4,76.3-170.4,170.4s76.3,170.4,170.4,170.4s170.4-76.3,170.4-170.4
	S292.4,19.9,198.3,19.9z M198.1,351.6c-89.1,0-161.4-72.2-161.4-161.3S109,28.9,198.1,28.9s161.4,72.2,161.4,161.3
	S287.2,351.6,198.1,351.6z"/>
<g>
	<path class="st0" d="M160.4,280.2c1.2,1.9,14.4,5.1,37.7,5.1c23.3,0,36.6-3.2,37.7-5.1c-1.2-1.9-14.4-5.1-37.7-5.1
		C174.8,275.1,161.5,278.3,160.4,280.2z"/>
	<path class="st0" d="M189.1,272.5c4.9-0.2,8.6-0.2,9.1-0.2c0.1,0,0.5,0,1.1,0c0.2-1.8-0.5-3.3-1.3-4.9c-3.4,0-6.7,0.1-9.8,0.2
		c0,0.1,0,0.1,0.1,0.2C188.2,268.1,189.3,271.3,189.1,272.5z"/>
	<path class="st0" d="M147.5,206c1.5-1.2,2.8-2.7,3.8-4.6c1-1.9,1.6-4.3,1.7-7.1c0.1-2.4,0-4.5-0.3-6.3c-0.3-1.8-0.7-3.5-1.3-5.1
		c-0.6-1.6-1.3-3.1-2.2-4.5c-0.9-1.4-1.8-2.9-2.9-4.4c-1.7,1.4-3.5,3.1-5.2,5c-1.7,1.9-3.3,3.9-4.8,6.1c-1.4,2.2-2.6,4.4-3.5,6.6
		c-0.9,2.2-1.4,4.4-1.5,6.6c-0.1,2.1,0.1,3.8,0.5,5.2c0.4,1.4,0.9,2.5,1.6,3.4c0.7,0.8,1.5,1.4,2.4,1.7c0.9,0.3,1.9,0.5,2.8,0.5
		c1.2,0,2.5-0.2,4.1-0.7C144.4,207.9,146,207.1,147.5,206z"/>
	<path class="st0" d="M151.1,162.4c1.9-1.6,3.7-3.2,5.6-5c1.8-1.7,3.5-3.5,5-5.3c1.5-1.8,2.7-3.6,3.6-5.2c0.9-1.7,1.4-3.3,1.4-4.8
		c0.1-2.3-0.5-4.2-1.7-5.6c-1.2-1.4-2.9-2.1-5.1-2.1c-2.2,0-4.1,0.5-5.7,1.4c-1.6,0.9-2.9,2-3.9,3.4c-1,1.3-1.8,2.8-2.3,4.4
		c-0.5,1.6-0.8,3.2-0.8,4.6c-0.1,2.3,0.2,4.6,0.7,6.8C148.3,157.1,149.4,159.6,151.1,162.4z"/>
	<path class="st0" d="M187.8,200.7c0.5,1.8,1.1,3.4,2,4.8c0.9,1.4,2,2.1,3.4,2.1c2.1,0,4.3-1.4,6.5-4.1c2.3-2.7,4.4-6.2,6.4-10.4
		c2-4.3,3.7-9,5.2-14.2c1.5-5.2,2.5-10.3,3.1-15.3c0-0.4,0.1-1.3,0.2-2.8c0.1-1.5,0.2-3.2,0.3-5.2c0-2,0-4.1-0.1-6.2
		c-0.1-2.2-0.4-4.2-0.9-6c-0.5-1.8-1.2-3.4-2.2-4.5c-1-1.2-2.3-1.8-3.8-1.8c-1.6,0-3.6,1.4-6,4.1c-2.4,2.7-4.8,6.5-7,11.4
		c-2.3,4.8-4.2,10.6-5.8,17.3c-1.6,6.7-2.4,13.9-2.3,21.8c0,0.8,0.1,2.1,0.3,3.8C187,197.1,187.3,198.9,187.8,200.7z"/>
	<path class="st0" d="M241.6,147c0.9,0,1.7-0.4,2.2-1.2c0.5-0.8,0.8-1.5,0.8-2.2c0-0.6-0.2-1.1-0.5-1.6c-0.3-0.5-1-0.8-2-0.8
		c-0.8,0-1.5,0.3-2.1,1c-0.6,0.6-0.9,1.4-0.9,2.2c0,0.6,0.2,1.2,0.5,1.7C239.9,146.7,240.6,147,241.6,147z"/>
	<path class="st0" d="M241.7,271.5c-6.7-1.6-14.7-2.7-23.4-3.4c0,0,0,0,0,0.1c0.2,0.5-0.5,1-0.8,0.5c-0.1-0.2-0.2-0.4-0.2-0.6
		c-5.9-0.4-12.1-0.7-18.5-0.7c0.6,0.8,1.4,1.7,1.6,2.6c0.2,0.8,0.1,1.6-0.1,2.3c8.7,0.1,38.3,1.1,38.3,7.9c0,7.9-38.9,7.9-40.6,7.9
		c-1.7,0-40.6-0.1-40.6-7.9c0-5.4,18.2-7.1,30.2-7.7c-0.1-1,0.3-2.1,0.1-3c-0.1-0.7-0.4-1.3-0.7-1.9c-29,1.3-48.4,7.2-48.4,12.6
		c0,0.6,0.3,1.2,0.8,1.9l0,0l3.9,2.9c8.7,4.4,29,8.1,55.2,8.1c16.3,0,31.6-1.5,43.1-4.1c5.2-1.2,8.9-2.5,11.6-3.8l4.4-3
		c0.6-0.7,0.9-1.3,0.9-1.9C258.6,277.9,254.2,274.4,241.7,271.5z"/>
	<path class="st0" d="M198.3,39.4C115,39.4,47.4,107,47.4,190.3S115,341.2,198.3,341.2s150.9-67.6,150.9-150.9
		S281.6,39.4,198.3,39.4z M235,142.2c0.5-0.9,1.1-1.7,1.8-2.4c0.8-0.7,1.6-1.3,2.7-1.7c1-0.4,2.1-0.6,3.1-0.6c2.5,0,4.3,0.6,5.2,1.9
		c1,1.3,1.5,2.5,1.5,3.7c0,0.8-0.2,1.6-0.5,2.5c-0.4,0.9-0.9,1.7-1.5,2.5c-0.6,0.8-1.5,1.5-2.4,2s-2.1,0.8-3.4,0.8
		c-1.5,0-2.7-0.2-3.6-0.6c-0.9-0.4-1.6-0.9-2.2-1.5c-0.5-0.6-0.9-1.2-1.1-1.9c-0.2-0.7-0.3-1.4-0.3-2
		C234.3,144,234.5,143.1,235,142.2z M177.9,173.9c0.8-4,1.9-8,3.3-12.1c1.4-4.1,3.1-8,5.1-11.8c2-3.8,4.2-7.2,6.5-10.1
		c2.4-3,4.9-5.3,7.7-7.1c2.7-1.8,5.6-2.7,8.4-2.7c2.7,0,5.1,1,7.1,3.1c2,2.1,3.6,4.8,4.7,8.1c1.2,3.4,1.9,7.2,2.2,11.6
		c0.3,4.4,0.2,8.9-0.3,13.5c-1.1,9.3-2.9,17-5.5,23.2c-2.6,6.2-5.4,11.1-8.5,14.7c-3.1,3.6-6.2,6.2-9.3,7.7
		c-3.1,1.5-5.8,2.3-8.1,2.3c-1.7,0-3.4-0.5-5.1-1.6c-1.7-1.1-3.2-2.8-4.6-5.2c-1.4-2.4-2.5-5.4-3.4-9.1c-0.9-3.7-1.3-8.2-1.4-13.5
		C176.7,181.5,177.1,177.9,177.9,173.9z M175.4,257.5c0.2-1.2,0.6-2.1,1.3-3c1.1-1.5,5.6-4.9,2.1-6.9c-0.5-0.3,0-1.1,0.5-0.8
		c1.7,1,2.1,2.7,1.3,4.4c-0.8,1.7-2.4,2.6-3.3,4.2c-1.7,2.7-0.8,6,1.5,7.9c0.4,0.4-0.2,1-0.6,0.6C176.1,262.3,175.1,260,175.4,257.5
		z M122.5,135.6l-12.1,49.1c-0.5,1.9-1.1,4.1-1.7,6.3c-0.6,2.3-1.1,4.6-1.5,7c-0.4,2.4-0.6,4.8-0.6,7.1c0,2.4,0.3,4.7,0.9,6.8
		c-0.6,0.4-1.4,0.6-2.3,0.8c-0.9,0.2-1.7,0.3-2.5,0.4c-0.9,0.1-1.8,0.2-2.7,0.1c-1.2,0-2.2-0.3-2.8-0.8c-0.6-0.5-1.1-1.2-1.4-2
		c-0.3-0.8-0.3-1.8-0.2-2.9c0.1-1.1,0.4-2.3,0.9-3.5c0.7-2.5,2.2-7.5,4.5-15.3c2.3-7.7,4.7-18.3,7.3-31.7c0.4-2.3,0.8-4.3,1.1-6.1
		c0.3-1.8,0.6-3.3,0.9-4.5c-1-0.6-2-1.4-3-2.3c-1-0.9-1.8-1.7-2.4-2.5c0.1-0.2,0.6-0.9,1.7-2.1c1-1.2,2.3-2.4,3.6-3.7
		c1.4-1.3,2.7-2.5,4.1-3.5c1.4-1,2.5-1.5,3.4-1.5c0.4,0,0.8,0.2,1.4,0.5c0.5,0.4,1.1,0.8,1.6,1.2c0.5,0.5,1,1,1.3,1.5
		C122.4,134.8,122.6,135.3,122.5,135.6z M128.1,210.9c-1.6-1.3-2.9-3-3.7-5.1c-0.9-2.1-1.3-4.8-1.2-8.1c0.1-3.1,0.7-6,1.9-8.8
		c1.2-2.8,2.8-5.4,4.7-7.8c1.9-2.5,4-4.7,6.3-6.8c2.3-2.1,4.5-3.9,6.7-5.6c-2-3.2-3.4-6-4.2-8.5s-1.1-5.1-1-7.7
		c0.1-1.5,0.5-3.5,1.2-6.1c0.7-2.5,1.9-5,3.6-7.4c1.7-2.4,3.9-4.5,6.7-6.2c2.8-1.8,6.2-2.7,10.3-2.7c2.2,0,4.2,0.4,6,1.1
		c1.7,0.7,3.2,1.7,4.3,2.9c1.1,1.2,1.9,2.6,2.5,4.2c0.5,1.6,0.8,3.1,0.8,4.7c-0.1,2.5-0.8,5-1.9,7.4c-1.2,2.4-2.6,4.7-4.4,6.9
		c-1.8,2.2-3.7,4.2-5.8,6.1c-2.1,1.9-4.1,3.5-6.1,4.9c2.2,3.3,4.2,7,5.9,11.1c1.7,4.1,2.5,8.4,2.4,13c-0.1,2.4-0.7,4.9-1.8,7.5
		c-1.1,2.6-2.7,5-4.7,7.1c-2,2.2-4.3,3.9-7,5.3c-2.7,1.4-5.6,2.1-8.7,2.1c-2.6,0-5-0.3-7.2-0.8C131.6,213.1,129.7,212.2,128.1,210.9
		z M254.8,287.5l-24.7,16.8c-0.7,0.4-11.8,6.9-30.1,6.9c-10.1,0-22.4-2-36.4-8l-0.3-0.2l-22.1-16.1c-1.4-0.8-2.5-1.6-3.4-2.5
		l-0.1-0.1l0,0c-1.2-1.3-1.9-2.6-1.9-4.1c0-8.7,23.8-14,49.8-15.3c-0.4-0.8-0.6-1.6-0.7-2.5c-0.1-1.7,0.5-2.8,1.4-4.2
		c2.3-3.6,4.4-3.3,2.7-9.5c-0.6-2.1-2-4.1-3.3-5.8c-0.3-0.5,0.4-0.9,0.8-0.5c2.7,3.6,5.6,8.6,3.2,13c-0.8,1.4-1,0.9-1.8,2.3
		c-2.2,3.9-2,5.2-1.1,7.1c3.2-0.1,6.5-0.2,9.7-0.3c-0.5-1.2-0.7-2.4-0.4-3.8c0.3-1.7,1.4-2.5,2.4-3.9c2.6-3.5,3.5-5.6,1-10.3
		c-0.6-1.2-1.5-2.3-2.3-3.5c-0.3-0.5,0.4-0.9,0.8-0.5c3.6,4.9,5.1,8.3,2.2,13.8c-1.6,3-3.2,5.2-2.6,8.1c0.4,0,0.8,0,1.1,0
		c3.5,0,6.9,0.1,10.2,0.2c0.2-0.7,0.5-1.4,0.7-2.1c1.2-4.5,0.8-5.5-1.3-8.9c-1-1.6-2.1-2.8-2.2-4.8c-0.2-2.7,1.2-4.9,3.4-6.4
		c0.5-0.3,0.9,0.4,0.5,0.8c-6.9,4.8,0.1,9.1,1.3,14.1c0.7,2.8-0.6,4.7-1.4,7.3c2.4,0.1,4.8,0.2,7.1,0.4c0.1-0.8,0.3-1.7,0.7-2.5
		c0.7-1.5,1.6-2.4,2-4c0.8-2.8-0.8-5.3-2.4-7.5c-0.3-0.5,0.4-0.9,0.8-0.5c1.6,2.2,3.3,4.8,2.9,7.7c-0.4,2.7-2.6,4.4-3,6.8
		c9.1,0.7,17.5,1.9,24.5,3.5c8.7,2,19.1,5.6,19.1,11.4C261.4,283.2,258.7,285.6,254.8,287.5z M304,157.4c-0.5,2.2-1.3,4.2-2.3,6
		c-1,1.8-2.2,3.2-3.6,4.2c-1.4,1-3,1.6-4.8,1.6c-0.9-0.1-1.7-0.4-2.5-0.9c-0.7-0.4-1.5-1.1-2.2-1.9c-0.8-0.9-1.5-2.1-2.1-3.8
		c1.9-0.8,3.5-2.2,4.6-4.2c1.1-2,2-4.1,2.5-6.2c0.6-2.5,1.1-5.2,1.3-8.2c0.1-3-0.5-5.1-1.8-6.5c-1.4-1.4-2.9-2.1-4.7-2.1
		c-3.4,0-7,1.8-10.7,5.3c-3.8,3.5-7.2,8.3-10.4,14.3c-3.2,6-5.9,13-8.1,21c-2.2,8-3.5,16.5-3.8,25.4c-0.1,4,0.1,7.5,0.8,10.3
		c0.7,2.8,1.7,5.1,2.9,6.9c1.3,1.8,2.7,3.1,4.3,3.9c1.6,0.8,3.2,1.2,4.8,1.2c2.5,0,4.9-0.5,7.1-1.6c2.2-1.1,4.3-2.4,6.1-4
		c1.8-1.6,3.4-3.2,4.8-4.9c1.3-1.7,2.4-3.2,3.1-4.5c0.5-0.9,1-1.5,1.6-1.7c0.6-0.2,1.1-0.2,1.5,0.2c0.4,0.3,0.7,0.8,0.9,1.5
		c0.1,0.7,0,1.5-0.4,2.4c-1.2,2.5-2.7,4.9-4.5,7.4c-1.8,2.5-3.8,4.7-6,6.7c-2.2,2-4.6,3.6-7.2,4.8c-2.6,1.2-5.3,1.8-8.2,1.8
		c-3.6,0-6.9-0.9-9.8-2.6c-2.9-1.7-5.4-4.1-7.5-7.1c-2.1-3-3.6-6.6-4.7-10.7c-1-4.1-1.5-8.4-1.4-13c0.1-4.3,0.7-9,1.7-14.1
		c1-5,2.4-10.1,4.2-15.2c1.8-5.1,4-10,6.5-14.7c2.6-4.7,5.5-8.9,8.8-12.5c3.3-3.6,7-6.5,11-8.7c4-2.2,8.5-3.3,13.3-3.3
		c3,0,5.5,0.6,7.5,1.8c2.1,1.2,3.7,2.8,5,4.7c1.3,1.9,2.1,4.1,2.7,6.6c0.5,2.5,0.7,4.9,0.6,7.5C304.9,152.8,304.5,155.2,304,157.4z"
		/>
	<path class="st0" d="M198.7,295.8c-17.2,0-35-1.8-47.3-5.1l13.5,9.9c37.6,16.3,63.4,1.5,63.7,1.3l15.9-10.8
		c-0.7,0.2-1.4,0.3-2.1,0.5C230.7,294.3,215.2,295.8,198.7,295.8z"/>
</g>
</svg>
