<?xml version="1.0" encoding="utf-8"?>
<!-- Generator: Adobe Illustrator 24.0.2, SVG Export Plug-In . SVG Version: 6.00 Build 0)  -->
<svg version="1.1" id="Calque_1" xmlns="http://www.w3.org/2000/svg" xmlns:xlink="http://www.w3.org/1999/xlink" x="0px" y="0px"
	 viewBox="0 0 396.6 380.6" style="enable-background:new 0 0 396.6 380.6;" xml:space="preserve">
<style type="text/css">
	.st0{fill:#ffffff;}
</style>
<path class="st0" d="M198.3,19.9c-94.1,0-170.4,76.3-170.4,170.4s76.3,170.4,170.4,170.4s170.4-76.3,170.4-170.4
	S292.4,19.9,198.3,19.9z M198.1,351.6c-89.1,0-161.4-72.2-161.4-161.3S109,28.9,198.1,28.9s161.4,72.2,161.4,161.3
	S287.2,351.6,198.1,351.6z"/>
<g>
	<path class="st0" d="M244,160.7c-0.8,0-1.5,0.3-2.1,1c-0.6,0.6-0.9,1.4-0.9,2.2c0,0.6,0.2,1.2,0.5,1.7c0.4,0.6,1,0.9,2.1,0.9
		c0.9,0,1.7-0.4,2.2-1.2c0.5-0.8,0.8-1.5,0.8-2.2c0-0.6-0.2-1.1-0.5-1.6C245.7,160.9,245.1,160.7,244,160.7z"/>
	<path class="st0" d="M215.8,162.7c-0.5-1.8-1.2-3.4-2.2-4.5c-1-1.2-2.3-1.8-3.8-1.8c-1.6,0-3.6,1.4-6,4.1c-2.4,2.7-4.8,6.5-7,11.4
		c-2.3,4.8-4.2,10.6-5.8,17.3c-1.6,6.7-2.4,13.9-2.3,21.8c0,0.8,0.1,2.1,0.3,3.8c0.2,1.8,0.5,3.6,1,5.4c0.5,1.8,1.1,3.4,2,4.8
		c0.9,1.4,2,2.1,3.4,2.1c2.1,0,4.3-1.4,6.5-4.1c2.3-2.7,4.4-6.2,6.4-10.4c2-4.3,3.7-9,5.2-14.2c1.5-5.2,2.5-10.3,3.1-15.3
		c0-0.4,0.1-1.3,0.2-2.8c0.1-1.5,0.2-3.2,0.3-5.2c0-2,0-4.1-0.1-6.2C216.6,166.5,216.3,164.5,215.8,162.7z"/>
	<path class="st0" d="M161.7,153.8c-2.2,0-4.1,0.5-5.7,1.4c-1.6,0.9-2.9,2-3.9,3.4c-1,1.3-1.8,2.8-2.3,4.4c-0.5,1.6-0.8,3.2-0.8,4.6
		c-0.1,2.3,0.2,4.6,0.7,6.8c0.5,2.2,1.6,4.7,3.3,7.5c1.9-1.6,3.7-3.2,5.6-5c1.8-1.7,3.5-3.5,5-5.3c1.5-1.8,2.7-3.6,3.6-5.2
		c0.9-1.7,1.4-3.3,1.4-4.8c0.1-2.3-0.5-4.2-1.7-5.6C165.6,154.5,163.9,153.8,161.7,153.8z"/>
	<path class="st0" d="M153.4,202.3c-0.6-1.6-1.3-3.1-2.2-4.5c-0.9-1.4-1.8-2.9-2.9-4.4c-1.7,1.4-3.5,3.1-5.2,5
		c-1.7,1.9-3.3,3.9-4.8,6.1c-1.4,2.2-2.6,4.4-3.5,6.6c-0.9,2.2-1.4,4.4-1.5,6.6c-0.1,2.1,0.1,3.8,0.5,5.2c0.4,1.4,0.9,2.5,1.6,3.4
		c0.7,0.8,1.5,1.4,2.4,1.7c0.9,0.3,1.9,0.5,2.8,0.5c1.2,0,2.5-0.2,4.1-0.7c1.6-0.5,3.1-1.3,4.7-2.4c1.5-1.2,2.8-2.7,3.8-4.6
		c1-1.9,1.6-4.3,1.7-7.1c0.1-2.4,0-4.5-0.3-6.3C154.4,205.6,154,203.9,153.4,202.3z"/>
	<path class="st0" d="M198.3,39.4C115,39.4,47.4,107,47.4,190.3S115,341.2,198.3,341.2s150.9-67.6,150.9-150.9
		S281.6,39.4,198.3,39.4z M124.5,155.1l-12.1,49.1c-0.5,1.9-1.1,4.1-1.7,6.3c-0.6,2.3-1.1,4.6-1.5,7c-0.4,2.4-0.6,4.8-0.6,7.1
		c0,2.4,0.3,4.7,0.9,6.8c-0.6,0.4-1.4,0.6-2.3,0.8c-0.9,0.2-1.7,0.3-2.5,0.4c-0.9,0.1-1.8,0.2-2.7,0.1c-1.2,0-2.2-0.3-2.8-0.8
		c-0.6-0.5-1.1-1.2-1.4-2c-0.3-0.8-0.3-1.8-0.2-2.9c0.1-1.1,0.4-2.3,0.9-3.5c0.7-2.5,2.2-7.5,4.5-15.3c2.3-7.7,4.7-18.3,7.3-31.7
		c0.4-2.3,0.8-4.3,1.1-6.1c0.3-1.8,0.6-3.3,0.9-4.5c-1-0.6-2-1.4-3-2.3c-1-0.9-1.8-1.7-2.4-2.5c0.1-0.2,0.6-0.9,1.7-2.1
		c1-1.2,2.3-2.4,3.6-3.7c1.4-1.3,2.7-2.5,4.1-3.5c1.4-1,2.5-1.5,3.4-1.5c0.4,0,0.8,0.2,1.4,0.5c0.5,0.4,1.1,0.8,1.6,1.2
		c0.5,0.5,1,1,1.3,1.5C124.4,154.3,124.6,154.7,124.5,155.1z M173,169.9c-1.2,2.4-2.6,4.7-4.4,6.9c-1.8,2.2-3.7,4.2-5.8,6.1
		c-2.1,1.9-4.1,3.5-6.1,4.9c2.2,3.3,4.2,7,5.9,11.1c1.7,4.1,2.5,8.4,2.4,13c-0.1,2.4-0.7,4.9-1.8,7.5c-1.1,2.6-2.7,5-4.7,7.1
		c-2,2.2-4.3,3.9-7,5.3c-2.7,1.4-5.6,2.1-8.7,2.1c-2.6,0-5-0.3-7.2-0.8c-2.2-0.5-4.1-1.4-5.7-2.7c-1.6-1.3-2.9-3-3.7-5.1
		c-0.9-2.1-1.3-4.8-1.2-8.1c0.1-3.1,0.7-6,1.9-8.8c1.2-2.8,2.8-5.4,4.7-7.8c1.9-2.5,4-4.7,6.3-6.8c2.3-2.1,4.5-3.9,6.7-5.6
		c-2-3.2-3.4-6-4.2-8.5s-1.1-5.1-1-7.7c0.1-1.5,0.5-3.5,1.2-6.1c0.7-2.5,1.9-5,3.6-7.4c1.7-2.4,3.9-4.5,6.7-6.2
		c2.8-1.8,6.2-2.7,10.3-2.7c2.2,0,4.2,0.4,6,1.1c1.7,0.7,3.2,1.7,4.3,2.9c1.1,1.2,1.9,2.6,2.5,4.2c0.5,1.6,0.8,3.1,0.8,4.7
		C174.8,165.1,174.1,167.5,173,169.9z M224.7,185.8c-1.1,9.3-2.9,17-5.5,23.2c-2.6,6.2-5.4,11.1-8.5,14.7c-3.1,3.6-6.2,6.2-9.3,7.7
		c-3.1,1.5-5.8,2.3-8.1,2.3c-1.7,0-3.4-0.5-5.1-1.6c-1.7-1.1-3.2-2.8-4.6-5.2c-1.4-2.4-2.5-5.4-3.4-9.1c-0.9-3.7-1.3-8.2-1.4-13.5
		c-0.1-3.3,0.3-7,1.1-11c0.8-4,1.9-8,3.3-12.1c1.4-4.1,3.1-8,5.1-11.8c2-3.8,4.2-7.2,6.5-10.1c2.4-3,4.9-5.3,7.7-7.1
		c2.7-1.8,5.6-2.7,8.4-2.7c2.7,0,5.1,1,7.1,3.1c2,2.1,3.6,4.8,4.7,8.1c1.2,3.4,1.9,7.2,2.2,11.6
		C225.3,176.7,225.2,181.2,224.7,185.8z M239.8,169.7c-0.9-0.4-1.6-0.9-2.2-1.5c-0.5-0.6-0.9-1.2-1.1-1.9c-0.2-0.7-0.3-1.4-0.3-2
		c0-0.9,0.2-1.9,0.7-2.8c0.5-0.9,1.1-1.7,1.8-2.4c0.8-0.7,1.6-1.3,2.7-1.7c1-0.4,2.1-0.6,3.1-0.6c2.5,0,4.3,0.6,5.2,1.9
		c1,1.3,1.5,2.5,1.5,3.7c0,0.8-0.2,1.6-0.5,2.5c-0.4,0.9-0.9,1.7-1.5,2.5c-0.6,0.8-1.5,1.5-2.4,2s-2.1,0.8-3.4,0.8
		C241.9,170.3,240.7,170.1,239.8,169.7z M303.7,182.8c-1,1.8-2.2,3.2-3.6,4.2c-1.4,1-3,1.6-4.8,1.6c-0.9-0.1-1.7-0.4-2.5-0.9
		c-0.7-0.4-1.5-1.1-2.2-1.9c-0.8-0.9-1.5-2.1-2.1-3.8c1.9-0.8,3.5-2.2,4.6-4.2c1.1-2,2-4.1,2.5-6.2c0.6-2.5,1.1-5.2,1.3-8.2
		c0.1-3-0.5-5.1-1.8-6.5c-1.4-1.4-2.9-2.1-4.7-2.1c-3.4,0-7,1.8-10.7,5.3c-3.8,3.5-7.2,8.3-10.4,14.3c-3.2,6-5.9,13-8.1,21
		c-2.2,8-3.5,16.5-3.8,25.4c-0.1,4,0.1,7.5,0.8,10.3c0.7,2.8,1.7,5.1,2.9,6.9c1.3,1.8,2.7,3.1,4.3,3.9c1.6,0.8,3.2,1.2,4.8,1.2
		c2.5,0,4.9-0.5,7.1-1.6c2.2-1.1,4.3-2.4,6.1-4c1.8-1.6,3.4-3.2,4.8-4.9c1.3-1.7,2.4-3.2,3.1-4.5c0.5-0.9,1-1.5,1.6-1.7
		c0.6-0.2,1.1-0.2,1.5,0.2c0.4,0.3,0.7,0.8,0.9,1.5c0.1,0.7,0,1.5-0.4,2.4c-1.2,2.5-2.7,4.9-4.5,7.4c-1.8,2.5-3.8,4.7-6,6.7
		c-2.2,2-4.6,3.6-7.2,4.8c-2.6,1.2-5.3,1.8-8.2,1.8c-3.6,0-6.9-0.9-9.8-2.6s-5.4-4.1-7.5-7.1c-2.1-3-3.6-6.6-4.7-10.7
		c-1-4.1-1.5-8.4-1.4-13c0.1-4.3,0.7-9,1.7-14.1c1-5,2.4-10.1,4.2-15.2c1.8-5.1,4-10,6.5-14.7c2.6-4.7,5.5-8.9,8.8-12.5
		c3.3-3.6,7-6.5,11-8.7c4-2.2,8.5-3.3,13.3-3.3c3,0,5.5,0.6,7.5,1.8c2.1,1.2,3.7,2.8,5,4.7c1.3,1.9,2.1,4.1,2.7,6.6
		c0.5,2.5,0.7,4.9,0.6,7.5c-0.1,2.4-0.5,4.7-1,6.9C305.4,179.1,304.7,181.1,303.7,182.8z"/>
</g>
</svg>
